# xmcd
#
# Track frame offsets:
#	150
#	18997
#	36690
#	51695
#	68452
#	87352
#	101500
#	119335
#	137792
#	155737
#	174587
#	192277
#	207285
#	224042
#	242945
#	257090
#	274925
#	293385
#	311327
#
# Disc length: 4403
#
# Revision: 1
# Processed by: cddbd v1.5.1PL0 Copyright (c) Steve Scherf et al.
# Submitted via: audiograbber 1.82.02
# Normalized: r0:DSETVAR1
#
DISCID=27113113
DTITLE=Various Artist - THC0001
DYEAR=2000
DGENRE=Country
TTITLE0=Hill, Faith (GV) - Breathe
TTITLE1=Sellers, Jason (GV) - Matter Of Time, A
TTITLE2=Jackson, Alan (GV) - Pop A Top
TTITLE3=Chesney, Kenny (GV) - She Thinks My Tractor's Sexy
TTITLE4=Alabama (GV) - Small Stuff
TTITLE5=Keith, Toby (GV) - When Love Fades
TTITLE6=Womack, Lee Ann (GV) - Don't Tell Me
TTITLE7=Messina, Jo Dee (GV) - Because You Love Me
TTITLE8=Wright, Chely (GV) - It Was
TTITLE9=Hill, Faith - Breathe
TTITLE10=Sellers, Jason - Matter of Time, A
TTITLE11=Jackson, Alan - Pop A Top
TTITLE12=Chesney, Kenny - She Thinks My Tractor's Sexy
TTITLE13=Alabama - Small Stuff
TTITLE14=Keith, Toby - When Love Fades
TTITLE15=Womack, Lee Ann - Don't Tell Me
TTITLE16=Messina, Jo Dee - Because You Love Me
TTITLE17=Wright, Chely - It Was
TTITLE18=White, Bryan - God Gave Me You
EXTD=Karaoke
EXTT0=
EXTT1=
EXTT2=
EXTT3=
EXTT4=
EXTT5=
EXTT6=
EXTT7=
EXTT8=
EXTT9=
EXTT10=
EXTT11=
EXTT12=
EXTT13=
EXTT14=
EXTT15=
EXTT16=
EXTT17=
EXTT18=
PLAYORDER=
